REM DIRINDEX 1\6,1\2\7,1\2\8,1\2\9,1\3\10,1\3\11,1\4\12,1\4\13,1\4\14,1\5\15,1\5\16,1\5\17
REM DIRNAME folder01,folder02,folder03,folder04,folder05,folder06,folder07,folder08,folder09,folder10,folder11,folder12,folder13,folder14,folder15,folder16,folder17
TITLE ""
FILE "P2Q_j_1212-1225.mp3" MP3
  TRACK 01 AUDIO
    TITLE "12:cjc040_0380"
    INDEX 01 00:00:00
  TRACK 02 AUDIO
    TITLE "0:"
    INDEX 01 00:01:54
  TRACK 03 AUDIO
    TITLE "13:cjc040_0381"
    INDEX 01 00:02:32
  TRACK 04 AUDIO
    TITLE "0:"
    INDEX 01 00:04:19
  TRACK 05 AUDIO
    TITLE "14:cjc040_0382"
    INDEX 01 00:04:68
  TRACK 06 AUDIO
    TITLE "0:"
    INDEX 01 00:09:30
  TRACK 07 AUDIO
    TITLE "12:cjc040_0383"
    INDEX 01 00:10:10
  TRACK 08 AUDIO
    TITLE "0:"
    INDEX 01 00:11:72
  TRACK 09 AUDIO
    TITLE "13:cjc040_0384"
    INDEX 01 00:12:52
  TRACK 10 AUDIO
    TITLE "0:"
    INDEX 01 00:14:37
  TRACK 11 AUDIO
    TITLE "14:cjc040_0385"
    INDEX 01 00:15:13
  TRACK 12 AUDIO
    TITLE "0:"
    INDEX 01 00:19:32
  TRACK 13 AUDIO
    TITLE "12:cjc040_0386"
    INDEX 01 00:20:10
  TRACK 14 AUDIO
    TITLE "0:"
    INDEX 01 00:21:72
  TRACK 15 AUDIO
    TITLE "13:cjc040_0387"
    INDEX 01 00:22:54
  TRACK 16 AUDIO
    TITLE "0:"
    INDEX 01 00:25:33
  TRACK 17 AUDIO
    TITLE "14:cjc040_0388"
    INDEX 01 00:26:13
  TRACK 18 AUDIO
    TITLE "0:"
    INDEX 01 00:31:37
  TRACK 19 AUDIO
    TITLE "12:cjc040_0389"
    INDEX 01 00:32:13
  TRACK 20 AUDIO
    TITLE "0:"
    INDEX 01 00:34:42
  TRACK 21 AUDIO
    TITLE "13:cjc040_0390"
    INDEX 01 00:35:14
  TRACK 22 AUDIO
    TITLE "0:"
    INDEX 01 00:37:44
  TRACK 23 AUDIO
    TITLE "14:cjc040_0391"
    INDEX 01 00:38:18
  TRACK 24 AUDIO
    TITLE "0:"
    INDEX 01 00:42:02
  TRACK 25 AUDIO
    TITLE "12:cjc040_0392"
    INDEX 01 00:42:53
  TRACK 26 AUDIO
    TITLE "0:"
    INDEX 01 00:46:09
  TRACK 27 AUDIO
    TITLE "13:cjc040_0393"
    INDEX 01 00:46:60
  TRACK 28 AUDIO
    TITLE "0:"
    INDEX 01 00:49:35
  TRACK 29 AUDIO
    TITLE "14:cjc040_0394"
    INDEX 01 00:50:13
  TRACK 30 AUDIO
    TITLE "0:"
    INDEX 01 00:56:74
  TRACK 31 AUDIO
    TITLE "12:cjc040_0395"
    INDEX 01 00:57:46
  TRACK 32 AUDIO
    TITLE "0:"
    INDEX 01 01:00:04
  TRACK 33 AUDIO
    TITLE "13:cjc040_0396"
    INDEX 01 01:00:59
  TRACK 34 AUDIO
    TITLE "0:"
    INDEX 01 01:03:20
  TRACK 35 AUDIO
    TITLE "14:cjc040_0397"
    INDEX 01 01:04:00
  TRACK 36 AUDIO
    TITLE "0:"
    INDEX 01 01:07:02
  TRACK 37 AUDIO
    TITLE "12:cjc040_0398"
    INDEX 01 01:07:49
  TRACK 38 AUDIO
    TITLE "0:"
    INDEX 01 01:10:08
  TRACK 39 AUDIO
    TITLE "13:cjc040_0399"
    INDEX 01 01:10:57
  TRACK 40 AUDIO
    TITLE "0:"
    INDEX 01 01:14:72
  TRACK 41 AUDIO
    TITLE "14:cjc040_0400"
    INDEX 01 01:15:46
  TRACK 42 AUDIO
    TITLE "0:"
    INDEX 01 01:21:00
  TRACK 43 AUDIO
    TITLE "12:cjc040_0401"
    INDEX 01 01:21:53
  TRACK 44 AUDIO
    TITLE "0:"
    INDEX 01 01:23:05
  TRACK 45 AUDIO
    TITLE "13:cjc040_0402"
    INDEX 01 01:23:60
  TRACK 46 AUDIO
    TITLE "0:"
    INDEX 01 01:25:43
  TRACK 47 AUDIO
    TITLE "14:cjc040_0403"
    INDEX 01 01:26:21
  TRACK 48 AUDIO
    TITLE "0:"
    INDEX 01 01:30:66
  TRACK 49 AUDIO
    TITLE "12:cjc040_0404"
    INDEX 01 01:31:41
  TRACK 50 AUDIO
    TITLE "0:"
    INDEX 01 01:33:03
  TRACK 51 AUDIO
    TITLE "13:cjc040_0405"
    INDEX 01 01:33:58
  TRACK 52 AUDIO
    TITLE "0:"
    INDEX 01 01:35:53
  TRACK 53 AUDIO
    TITLE "14:cjc040_0406"
    INDEX 01 01:36:27
  TRACK 54 AUDIO
    TITLE "0:"
    INDEX 01 01:42:31
  TRACK 55 AUDIO
    TITLE "12:cjc040_0407"
    INDEX 01 01:43:09
  TRACK 56 AUDIO
    TITLE "0:"
    INDEX 01 01:46:21
  TRACK 57 AUDIO
    TITLE "13:cjc040_0408"
    INDEX 01 01:46:72
  TRACK 58 AUDIO
    TITLE "0:"
    INDEX 01 01:49:22
  TRACK 59 AUDIO
    TITLE "14:cjc040_0409"
    INDEX 01 01:50:00
  TRACK 60 AUDIO
    TITLE "0:"
    INDEX 01 01:58:70
  TRACK 61 AUDIO
    TITLE "12:cjc040_0410"
    INDEX 01 01:59:51
  TRACK 62 AUDIO
    TITLE "0:"
    INDEX 01 02:01:03
  TRACK 63 AUDIO
    TITLE "13:cjc040_0411"
    INDEX 01 02:01:58
  TRACK 64 AUDIO
    TITLE "0:"
    INDEX 01 02:03:34
  TRACK 65 AUDIO
    TITLE "14:cjc040_0412"
    INDEX 01 02:04:13
  TRACK 66 AUDIO
    TITLE "0:"
    INDEX 01 02:10:45
  TRACK 67 AUDIO
    TITLE "12:cjc040_0413"
    INDEX 01 02:11:25
  TRACK 68 AUDIO
    TITLE "0:"
    INDEX 01 02:12:64
  TRACK 69 AUDIO
    TITLE "13:cjc040_0414"
    INDEX 01 02:13:40
  TRACK 70 AUDIO
    TITLE "0:"
    INDEX 01 02:14:57
  TRACK 71 AUDIO
    TITLE "14:cjc040_0415"
    INDEX 01 02:15:33
  TRACK 72 AUDIO
    TITLE "0:"
    INDEX 01 02:19:64
  TRACK 73 AUDIO
    TITLE "12:cjc040_0416"
    INDEX 01 02:20:42
  TRACK 74 AUDIO
    TITLE "0:"
    INDEX 01 02:21:57
  TRACK 75 AUDIO
    TITLE "13:cjc040_0417"
    INDEX 01 02:22:37
  TRACK 76 AUDIO
    TITLE "0:"
    INDEX 01 02:23:40
  TRACK 77 AUDIO
    TITLE "14:cjc040_0418"
    INDEX 01 02:24:14
  TRACK 78 AUDIO
    TITLE "0:"
    INDEX 01 02:29:60
  TRACK 79 AUDIO
    TITLE "12:cjc040_0419"
    INDEX 01 02:30:38
  TRACK 80 AUDIO
    TITLE "0:"
    INDEX 01 02:31:73
  TRACK 81 AUDIO
    TITLE "13:cjc040_0420"
    INDEX 01 02:32:53
  TRACK 82 AUDIO
    TITLE "0:"
    INDEX 01 02:33:58
  TRACK 83 AUDIO
    TITLE "14:cjc040_0421"
    INDEX 01 02:34:30
  TRACK 84 AUDIO
    TITLE "0:"
    INDEX 01 02:42:08
